<svg width="59" height="25" viewBox="0 0 59 25" fill="none" xmlns="http://www.w3.org/2000/svg">
<path d="M4.65604 13.336C2.37505 13.336 1.58367 15.2343 1.58367 17.0035C1.58367 18.7728 2.37505 20.6711 4.65604 20.6711C6.59786 20.6711 7.21921 19.3625 7.29518 18.2387H8.87885C8.7468 20.3767 7.03109 21.9611 4.65604 21.9611C1.84686 21.9611 0 19.9523 0 17.0044C0 14.0566 1.84686 12.0469 4.65604 12.0469C7.03109 12.0469 8.65184 13.595 8.87885 15.6958H7.29518C7.21921 14.6622 6.57796 13.336 4.65604 13.336Z" fill="#0B0B0B"/>
<path d="M11.9693 12.3033V14.1645H12.0073C12.5165 12.9301 13.2889 12.0451 14.6654 12.0451C15.0236 12.0451 15.2877 12.0637 15.5518 12.1008V13.5747C15.3257 13.5376 15.1556 13.519 14.9295 13.519C13.1577 13.519 11.9702 14.8824 11.9702 16.6888V21.7011H10.4625V12.3033H11.9693Z" fill="#0B0B0B"/>
<path d="M16.0221 17.0027C16.0221 14.0725 17.7939 12.0274 20.7342 12.0274C23.6555 12.0274 25.4282 14.0725 25.4282 17.0027C25.4282 19.9328 23.6564 21.9779 20.7342 21.9779C17.7939 21.9779 16.0221 19.9328 16.0221 17.0027ZM23.8446 17.0027C23.8446 14.9938 22.8831 13.3174 20.7342 13.3174C18.5663 13.3174 17.6049 14.9947 17.6049 17.0027C17.6049 19.0115 18.5663 20.6879 20.7342 20.6879C22.8831 20.6888 23.8446 19.0115 23.8446 17.0027Z" fill="#0B0B0B"/>
<path d="M28.5757 12.3033V13.4271H28.6137C29.1229 12.7639 30.1403 12.0451 31.7801 12.0451C33.5329 12.0451 35.0035 12.985 35.0035 15.1415V21.702H33.4949V15.5102C33.4949 14.2935 32.9106 13.336 31.4029 13.336C29.7062 13.336 28.5748 14.3864 28.5748 15.8417V21.702H27.0671V12.3033H28.5757Z" fill="#0B0B0B"/>
<path d="M35.7768 12.3033H37.4735L40.4328 19.7851H40.4708L43.2981 12.3033H44.9197L41.037 21.9779C40.0756 24.3554 39.1521 25 37.8516 25C37.5124 25 37.2863 24.9814 36.8522 24.908V23.6552C37.1723 23.6923 37.3234 23.71 37.6065 23.71C38.3978 23.71 39.2652 23.2308 39.6803 21.6092L35.7768 12.3033Z" fill="#0B0B0B"/>
<path d="M46.0684 12.3033H47.5761V13.4271H47.6141C48.1232 12.7639 48.9526 12.0451 50.4042 12.0451C51.7799 12.0451 52.5722 12.6163 52.9674 13.6667H53.0054C53.6656 12.7825 54.6641 12.0451 56.1158 12.0451C58.0576 12.0451 59 13.1689 59 15.1415V21.702H57.4914V15.5102C57.4914 14.2935 57.2463 13.336 55.7386 13.336C54.23 13.336 53.2876 14.3864 53.2876 15.8417V21.702H51.7799V15.5102C51.7799 14.2935 51.5348 13.336 50.0271 13.336C48.5194 13.336 47.5761 14.3864 47.5761 15.8417V21.702H46.0684V12.3033Z" fill="#0B0B0B"/>
<path d="M1.46643e-07 7.26083C1.46643e-07 5.10522 1.62075 4.53316 4.10976 4.0725C5.7495 3.77807 6.5038 3.59328 6.5038 2.67197C6.5038 1.93457 6.08957 1.29001 4.5059 1.29001C2.67713 1.29001 2.14985 1.82405 2.05578 3.18833H0.471211C0.565273 1.38196 1.7338 0 4.56198 0C6.35276 0 7.97351 0.7374 7.97351 3.04067V7.55526C7.97351 8.29266 8.08657 8.66136 8.46372 8.66136C8.51979 8.66136 8.57677 8.66136 8.68982 8.64279V9.67462C8.44472 9.73033 8.21861 9.76658 7.95452 9.76658C7.12515 9.76658 6.61595 9.45358 6.52189 8.29266H6.4839C5.86165 9.30592 4.76819 9.9328 3.16643 9.9328C1.22461 9.9328 1.46643e-07 8.84527 1.46643e-07 7.26083ZM6.5029 6.04421V4.55172C6.21981 4.84615 5.27739 5.08577 4.2409 5.28912C2.37505 5.67639 1.58276 6.09991 1.58276 7.18744C1.58276 8.10875 2.07297 8.64368 3.31747 8.64368C5.12725 8.64279 6.5029 7.85057 6.5029 6.04421Z" fill="#0B0B0B"/>
<path d="M18.5554 4.23873V5.71264H10.1568V4.23873H18.5554Z" fill="#0B0B0B"/>
<path d="M59 1.46596C59 2.29708 58.3325 2.9496 57.4643 2.9496C56.6041 2.9496 55.9186 2.29708 55.9186 1.46596C55.9186 0.65252 56.6041 0 57.4643 0C58.3325 0 59 0.65252 59 1.46596ZM56.3021 1.46596C56.3021 2.11848 56.7959 2.63749 57.4724 2.63749C58.1308 2.63749 58.6156 2.11848 58.6156 1.47569C58.6156 0.823166 58.1308 0.295314 57.4634 0.295314C56.7959 0.295314 56.3021 0.822281 56.3021 1.46596ZM57.2255 2.23519H56.8782V0.76923C57.0148 0.742705 57.2074 0.724138 57.4534 0.724138C57.7374 0.724138 57.8649 0.769231 57.9744 0.831124C58.0567 0.8939 58.1209 1.00973 58.1209 1.15296C58.1209 1.31388 57.9925 1.43943 57.8098 1.49248V1.51017C57.9563 1.5641 58.0386 1.67109 58.0847 1.86737C58.1299 2.09107 58.158 2.18037 58.1941 2.23431H57.8197C57.7736 2.18037 57.7455 2.04686 57.7003 1.8771C57.6732 1.71618 57.5809 1.64456 57.3892 1.64456H57.2246V2.23519H57.2255ZM57.2354 1.40318H57.4001C57.5918 1.40318 57.7474 1.34041 57.7474 1.18921C57.7474 1.05482 57.647 0.965517 57.4272 0.965517C57.3367 0.965517 57.2725 0.974359 57.2354 0.984085V1.40318Z" fill="#0B0B0B"/>
</svg>
